<?xml version="1.0" encoding="UTF-8" standalone="no"?>
<svg
   width="158.750mm"
   height="122.979mm"
   viewBox="0 0 158.750 122.979"
   version="1.1"
   id="svg1003"
   sodipodi:docname="4.svg"
   inkscape:version="1.1.1 (eb90963e84, 2021-10-02)"
   xmlns:inkscape="http://www.inkscape.org/namespaces/inkscape"
   xmlns:sodipodi="http://sodipodi.sourceforge.net/DTD/sodipodi-0.dtd"
   xmlns="http://www.w3.org/2000/svg"
   xmlns:svg="http://www.w3.org/2000/svg">
  <defs
     id="defs1007" />
  <sodipodi:namedview
     id="namedview1005"
     pagecolor="#ffffff"
     bordercolor="#666666"
     borderopacity="1.0"
     inkscape:pageshadow="2"
     inkscape:pageopacity="0.0"
     inkscape:pagecheckerboard="0"
     inkscape:document-units="mm"
     showgrid="false"
     inkscape:zoom="1.768493"
     inkscape:cx="299.97291"
     inkscape:cy="232.40125"
     inkscape:window-width="2546"
     inkscape:window-height="1031"
     inkscape:window-x="4"
     inkscape:window-y="39"
     inkscape:window-maximized="1"
     inkscape:current-layer="svg1003" />
  <title
     id="title939">Exported SVG</title>
  <style
     id="style941"><![CDATA[
polygon {
shape-rendering:crispEdges;
stroke-width:0.158750;
}
.s0 {
stroke:#000000;
stroke-width:0.119846;
stroke-linecap:round;
stroke-linejoin:round;
fill:none;
}
.s1 {
stroke:#000000;
stroke-width:0.119846;
stroke-linecap:round;
stroke-linejoin:round;
fill:none;
}
.s2 {
stroke:#19b219;
stroke-width:0.119846;
stroke-linecap:round;
stroke-linejoin:round;
fill:none;
}
.s3 {
stroke:#7f4c00;
stroke-width:0.119846;
stroke-linecap:round;
stroke-linejoin:round;
fill:none;
}
.s4 {
stroke:#00cc00;
stroke-width:0.119846;
stroke-linecap:round;
stroke-linejoin:round;
fill:none;
}
.s5 {
stroke:#000000;
stroke-width:0.079897;
stroke-linecap:round;
stroke-linejoin:round;
fill:none;
}
.s6 {
stroke:#ff19ff;
stroke-width:0.079897;
stroke-linecap:round;
stroke-linejoin:round;
fill:none;
}
.s7 {
stroke:#ff0000;
stroke-width:0.119846;
stroke-linecap:round;
stroke-linejoin:round;
fill:none;
}
.s8 {
stroke:#ffff00;
stroke-width:0.119846;
stroke-linecap:round;
stroke-linejoin:round;
fill:none;
}
.s9 {
stroke:#001919;
stroke-width:0.079897;
stroke-linecap:round;
stroke-linejoin:round;
fill:none;
}
.sa {
stroke:#006666;
stroke-width:0.079897;
stroke-linecap:round;
stroke-linejoin:round;
fill:none;
}
.sb {
stroke:#00ffff;
stroke-width:0.239692;
stroke-linecap:round;
stroke-linejoin:round;
fill:none;
}
.sc {
stroke:#ff0000;
stroke-width:0.639179;
stroke-linecap:round;
stroke-linejoin:round;
fill:none;
}
.sd {
stroke:#191919;
stroke-width:0.079897;
stroke-linecap:round;
stroke-linejoin:round;
fill:none;
}
.se {
stroke:#000000;
stroke-width:0.079897;
stroke-linecap:round;
stroke-linejoin:round;
stroke-dasharray:1.198,1.198;
fill:none;
}
.sf {
stroke:#000000;
stroke-width:0.239692;
stroke-linecap:round;
stroke-linejoin:round;
fill:none;
}
]]></style>
  <path
     d="M5.000 22.907 L5.000,63.407 L11.000,63.407 L11.000,21.407 L15.500,21.407 L15.500,18.063 L7.314,19.986 A3.000,3.000 0 0,0 5.000,22.907 "
     class="s5"
     id="path943"
     style="stroke:#ff0000" />
  <path
     d="M8.000 24.507 A1.600,1.600 0 0,1 6.400,22.907 A1.600,1.600 0 0,1 8.000,21.307 A1.600,1.600 0 0,1 9.600,22.907 A1.600,1.600 0 0,1 8.000,24.507 "
     class="s5"
     id="path945"
     style="stroke:#0000ff" />
  <path
     d="M8.000 59.507 A1.600,1.600 0 0,1 6.400,57.907 A1.600,1.600 0 0,1 8.000,56.307 A1.600,1.600 0 0,1 9.600,57.907 A1.600,1.600 0 0,1 8.000,59.507 "
     class="s5"
     id="path947"
     style="stroke:#0000ff" />
  <path
     d="M6.349 87.750 L18.858,109.328 A10.000,10.000 0 0,0 32.524,112.964 L42.947,106.922 A10.000,10.000 0 0,1 46.706,105.652 L79.622,101.483 A10.000,10.000 0 0,0 86.447,97.452 L91.319,90.767 A10.000,10.000 0 0,1 99.400,86.657 L150.750,86.657 A3.000,3.000 0 0,0 153.750,83.657 L153.750,22.907 A3.010,3.010 0 0,0 151.468,19.986 A298.011,298.011 0 0,0 30.250,15.214 L30.250,19.157 L31.500,19.157 L31.500,72.499 L14.000,82.603 L11.000,77.407 L5.000,77.407 L5.000,82.735 A10.000,10.000 0 0,0 6.349,87.750 "
     class="s5"
     id="path949"
     style="stroke:#ff0000" />
  <path
     d="M37.500 17.757 A1.600,1.600 0 0,1 35.900,16.157 A1.600,1.600 0 0,1 37.500,14.557 A1.600,1.600 0 0,1 39.100,16.157 A1.600,1.600 0 0,1 37.500,17.757 "
     class="s5"
     id="path951"
     style="stroke:#0000ff" />
  <path
     d="M8.000 84.335 A1.600,1.600 0 0,1 6.400,82.735 A1.600,1.600 0 0,1 8.000,81.135 A1.600,1.600 0 0,1 9.600,82.735 A1.600,1.600 0 0,1 8.000,84.335 "
     class="s5"
     id="path953"
     style="stroke:#0000ff" />
  <path
     d="M86.229 94.257 A1.600,1.600 0 0,1 84.629,92.657 A1.600,1.600 0 0,1 86.229,91.057 A1.600,1.600 0 0,1 87.829,92.657 A1.600,1.600 0 0,1 86.229,94.257 "
     class="s5"
     id="path955"
     style="stroke:#0000ff" />
  <path
     d="M150.750 24.507 A1.600,1.600 0 0,1 149.150,22.907 A1.600,1.600 0 0,1 150.750,21.307 A1.600,1.600 0 0,1 152.350,22.907 A1.600,1.600 0 0,1 150.750,24.507 "
     class="s5"
     id="path957"
     style="stroke:#0000ff" />
  <path
     d="M149.432 83.939 A1.600,1.600 0 0,1 147.832,82.339 A1.600,1.600 0 0,1 149.432,80.739 A1.600,1.600 0 0,1 151.032,82.339 A1.600,1.600 0 0,1 149.432,83.939 "
     class="s5"
     id="path959"
     style="stroke:#0000ff" />
  <path
     d="M35.150 36.532 L35.150,22.532 L49.150,22.532 L49.150,36.532 L35.150,36.532 "
     class="s5"
     id="path961"
     style="stroke:#0000ff" />
  <path
     d="M54.160 53.152 L54.160,39.152 L68.160,39.152 L68.160,53.152 L54.160,53.152 "
     class="s5"
     id="path963"
     style="stroke:#0000ff" />
  <path
     d="M54.160 34.152 L54.160,20.152 L68.160,20.152 L68.160,34.152 L54.160,34.152 "
     class="s5"
     id="path965"
     style="stroke:#0000ff" />
  <path
     d="M35.150 55.527 L35.150,41.527 L49.150,41.527 L49.150,55.527 L35.150,55.527 "
     class="s5"
     id="path967"
     style="stroke:#0000ff" />
  <path
     d="M73.159 31.777 L73.159,17.777 L87.159,17.777 L87.159,31.777 L73.159,31.777 "
     class="s5"
     id="path969"
     style="stroke:#0000ff" />
  <path
     d="M73.159 50.777 L73.159,36.777 L87.159,36.777 L87.159,50.777 L73.159,50.777 "
     class="s5"
     id="path971"
     style="stroke:#0000ff" />
  <path
     d="M92.159 34.152 L92.159,20.152 L106.159,20.152 L106.159,34.152 L92.159,34.152 "
     class="s5"
     id="path973"
     style="stroke:#0000ff" />
  <path
     d="M73.159 69.777 L73.159,55.777 L87.159,55.777 L87.159,69.777 L73.159,69.777 "
     class="s5"
     id="path975"
     style="stroke:#0000ff" />
  <path
     d="M92.159 53.152 L92.159,39.152 L106.159,39.152 L106.159,53.152 L92.159,53.152 "
     class="s5"
     id="path977"
     style="stroke:#0000ff" />
  <path
     d="M54.160 72.152 L54.160,58.152 L68.160,58.152 L68.160,72.152 L54.160,72.152 "
     class="s5"
     id="path979"
     style="stroke:#0000ff" />
  <path
     d="M35.150 74.527 L35.150,60.527 L49.150,60.527 L49.150,74.527 L35.150,74.527 "
     class="s5"
     id="path981"
     style="stroke:#0000ff" />
  <path
     d="M111.159 38.902 L111.159,24.902 L125.159,24.902 L125.159,38.902 L111.159,38.902 "
     class="s5"
     id="path983"
     style="stroke:#0000ff" />
  <path
     d="M130.160 57.902 L130.160,43.902 L144.160,43.902 L144.160,57.902 L130.160,57.902 "
     class="s5"
     id="path985"
     style="stroke:#0000ff" />
  <path
     d="M58.233 92.476 L44.710,96.100 L41.086,82.577 L54.609,78.954 L58.233,92.476 "
     class="s5"
     id="path987"
     style="stroke:#0000ff" />
  <path
     d="M130.160 38.902 L130.160,24.902 L144.159,24.902 L144.159,38.902 L130.160,38.902 "
     class="s5"
     id="path989"
     style="stroke:#0000ff" />
  <path
     d="M130.160 76.902 L130.160,62.902 L144.159,62.902 L144.159,76.902 L130.160,76.902 "
     class="s5"
     id="path991"
     style="stroke:#0000ff" />
  <path
     d="M111.159 76.902 L111.159,62.902 L125.159,62.902 L125.159,76.902 L111.159,76.902 "
     class="s5"
     id="path993"
     style="stroke:#0000ff" />
  <path
     d="M92.159 72.152 L92.159,58.152 L106.159,58.152 L106.159,72.152 L92.159,72.152 "
     class="s5"
     id="path995"
     style="stroke:#0000ff" />
  <path
     d="M111.159 57.902 L111.159,43.902 L125.159,43.902 L125.159,57.902 L111.159,57.902 "
     class="s5"
     id="path997"
     style="stroke:#0000ff" />
  <path
     d="M24.847 100.839 L17.847,88.715 L29.972,81.715 L36.972,93.839 L24.847,100.839 "
     class="s5"
     id="path999"
     style="stroke:#0000ff" />
  <path
     d="m 63.66,91.777 v -14 h 13.999 v 14 H 63.66"
     class="s5"
     id="path1001"
     style="display:inline;stroke:#0000ff" />
</svg>
