<?xml version="1.0" encoding="UTF-8" standalone="no"?>
<svg
   width="158.750mm"
   height="122.979mm"
   viewBox="0 0 158.750 122.979"
   version="1.1"
   id="svg919"
   sodipodi:docname="5.svg"
   inkscape:version="1.1.1 (eb90963e84, 2021-10-02)"
   xmlns:inkscape="http://www.inkscape.org/namespaces/inkscape"
   xmlns:sodipodi="http://sodipodi.sourceforge.net/DTD/sodipodi-0.dtd"
   xmlns="http://www.w3.org/2000/svg"
   xmlns:svg="http://www.w3.org/2000/svg">
  <defs
     id="defs923" />
  <sodipodi:namedview
     id="namedview921"
     pagecolor="#ffffff"
     bordercolor="#666666"
     borderopacity="1.0"
     inkscape:pageshadow="2"
     inkscape:pageopacity="0.0"
     inkscape:pagecheckerboard="0"
     inkscape:document-units="mm"
     showgrid="false"
     inkscape:zoom="1.768493"
     inkscape:cx="299.97291"
     inkscape:cy="232.40125"
     inkscape:window-width="2546"
     inkscape:window-height="1031"
     inkscape:window-x="4"
     inkscape:window-y="39"
     inkscape:window-maximized="1"
     inkscape:current-layer="svg919" />
  <title
     id="title897">Exported SVG</title>
  <style
     id="style899"><![CDATA[
polygon {
shape-rendering:crispEdges;
stroke-width:0.158750;
}
.s0 {
stroke:#000000;
stroke-width:0.119846;
stroke-linecap:round;
stroke-linejoin:round;
fill:none;
}
.s1 {
stroke:#000000;
stroke-width:0.119846;
stroke-linecap:round;
stroke-linejoin:round;
fill:none;
}
.s2 {
stroke:#19b219;
stroke-width:0.119846;
stroke-linecap:round;
stroke-linejoin:round;
fill:none;
}
.s3 {
stroke:#7f4c00;
stroke-width:0.119846;
stroke-linecap:round;
stroke-linejoin:round;
fill:none;
}
.s4 {
stroke:#00cc00;
stroke-width:0.119846;
stroke-linecap:round;
stroke-linejoin:round;
fill:none;
}
.s5 {
stroke:#000000;
stroke-width:0.079897;
stroke-linecap:round;
stroke-linejoin:round;
fill:none;
}
.s6 {
stroke:#ff19ff;
stroke-width:0.079897;
stroke-linecap:round;
stroke-linejoin:round;
fill:none;
}
.s7 {
stroke:#ff0000;
stroke-width:0.119846;
stroke-linecap:round;
stroke-linejoin:round;
fill:none;
}
.s8 {
stroke:#ffff00;
stroke-width:0.119846;
stroke-linecap:round;
stroke-linejoin:round;
fill:none;
}
.s9 {
stroke:#001919;
stroke-width:0.079897;
stroke-linecap:round;
stroke-linejoin:round;
fill:none;
}
.sa {
stroke:#006666;
stroke-width:0.079897;
stroke-linecap:round;
stroke-linejoin:round;
fill:none;
}
.sb {
stroke:#00ffff;
stroke-width:0.239692;
stroke-linecap:round;
stroke-linejoin:round;
fill:none;
}
.sc {
stroke:#ff0000;
stroke-width:0.639179;
stroke-linecap:round;
stroke-linejoin:round;
fill:none;
}
.sd {
stroke:#191919;
stroke-width:0.079897;
stroke-linecap:round;
stroke-linejoin:round;
fill:none;
}
.se {
stroke:#000000;
stroke-width:0.079897;
stroke-linecap:round;
stroke-linejoin:round;
stroke-dasharray:1.198,1.198;
fill:none;
}
.sf {
stroke:#000000;
stroke-width:0.239692;
stroke-linecap:round;
stroke-linejoin:round;
fill:none;
}
]]></style>
  <path
     d="M5.000 22.907 L5.000,63.407 L11.000,63.407 L11.000,21.407 L15.500,21.407 L15.500,18.063 L7.314,19.986 A3.000,3.000 0 0,0 5.000,22.907 "
     class="s5"
     id="path901"
     style="stroke:#ff0000" />
  <path
     d="M8.000 24.507 A1.600,1.600 0 0,1 6.400,22.907 A1.600,1.600 0 0,1 8.000,21.307 A1.600,1.600 0 0,1 9.600,22.907 A1.600,1.600 0 0,1 8.000,24.507 "
     class="s5"
     id="path903"
     style="stroke:#0000ff" />
  <path
     d="M8.000 59.507 A1.600,1.600 0 0,1 6.400,57.907 A1.600,1.600 0 0,1 8.000,56.307 A1.600,1.600 0 0,1 9.600,57.907 A1.600,1.600 0 0,1 8.000,59.507 "
     class="s5"
     id="path905"
     style="stroke:#0000ff" />
  <path
     d="M6.349 87.750 L18.858,109.328 A10.000,10.000 0 0,0 32.524,112.964 L42.947,106.922 A10.000,10.000 0 0,1 46.706,105.652 L79.622,101.483 A10.000,10.000 0 0,0 86.447,97.452 L91.319,90.767 A10.000,10.000 0 0,1 99.400,86.657 L150.750,86.657 A3.000,3.000 0 0,0 153.750,83.657 L153.750,22.907 A3.010,3.010 0 0,0 151.468,19.986 A298.011,298.011 0 0,0 30.250,15.214 L30.250,19.157 L50.750,19.157 L50.750,16.657 L69.750,16.657 L69.750,14.407 L90.750,14.407 L90.750,16.657 L109.750,16.657 L109.750,21.407 L147.750,21.407 L147.750,80.657 L96.349,80.657 A10.000,10.000 0 0,0 88.267,84.767 L83.123,91.825 A10.000,10.000 0 0,1 76.298,95.856 L44.747,99.852 A10.000,10.000 0 0,0 40.989,101.122 L28.217,108.525 A2.500,2.500 0 0,1 24.801,107.616 L11.000,83.810 L11.000,77.407 L5.000,77.407 L5.000,82.735 A10.000,10.000 0 0,0 6.349,87.750 "
     class="s5"
     id="path907"
     style="stroke:#ff0000" />
  <path
     d="M37.500 17.757 A1.600,1.600 0 0,1 35.900,16.157 A1.600,1.600 0 0,1 37.500,14.557 A1.600,1.600 0 0,1 39.100,16.157 A1.600,1.600 0 0,1 37.500,17.757 "
     class="s5"
     id="path909"
     style="stroke:#0000ff" />
  <path
     d="M8.000 84.335 A1.600,1.600 0 0,1 6.400,82.735 A1.600,1.600 0 0,1 8.000,81.135 A1.600,1.600 0 0,1 9.600,82.735 A1.600,1.600 0 0,1 8.000,84.335 "
     class="s5"
     id="path911"
     style="stroke:#0000ff" />
  <path
     d="M86.229 94.257 A1.600,1.600 0 0,1 84.629,92.657 A1.600,1.600 0 0,1 86.229,91.057 A1.600,1.600 0 0,1 87.829,92.657 A1.600,1.600 0 0,1 86.229,94.257 "
     class="s5"
     id="path913"
     style="stroke:#0000ff" />
  <path
     d="M150.750 24.507 A1.600,1.600 0 0,1 149.150,22.907 A1.600,1.600 0 0,1 150.750,21.307 A1.600,1.600 0 0,1 152.350,22.907 A1.600,1.600 0 0,1 150.750,24.507 "
     class="s5"
     id="path915"
     style="stroke:#0000ff" />
  <path
     d="M149.432 83.939 A1.600,1.600 0 0,1 147.832,82.339 A1.600,1.600 0 0,1 149.432,80.739 A1.600,1.600 0 0,1 151.032,82.339 A1.600,1.600 0 0,1 149.432,83.939 "
     class="s5"
     id="path917"
     style="stroke:#0000ff" />
</svg>
