<?xml version="1.0" encoding="UTF-8" standalone="no"?>
<svg
   width="158.750mm"
   height="122.979mm"
   viewBox="0 0 158.750 122.979"
   version="1.1"
   id="svg1152"
   sodipodi:docname="7.svg"
   inkscape:version="1.1.1 (eb90963e84, 2021-10-02)"
   xmlns:inkscape="http://www.inkscape.org/namespaces/inkscape"
   xmlns:sodipodi="http://sodipodi.sourceforge.net/DTD/sodipodi-0.dtd"
   xmlns="http://www.w3.org/2000/svg"
   xmlns:svg="http://www.w3.org/2000/svg">
  <defs
     id="defs1156" />
  <sodipodi:namedview
     id="namedview1154"
     pagecolor="#ffffff"
     bordercolor="#666666"
     borderopacity="1.0"
     inkscape:pageshadow="2"
     inkscape:pageopacity="0.0"
     inkscape:pagecheckerboard="0"
     inkscape:document-units="mm"
     showgrid="false"
     inkscape:zoom="1.8739142"
     inkscape:cx="300.17383"
     inkscape:cy="232.66807"
     inkscape:window-width="2546"
     inkscape:window-height="1031"
     inkscape:window-x="4"
     inkscape:window-y="39"
     inkscape:window-maximized="1"
     inkscape:current-layer="svg1152" />
  <title
     id="title1130">Exported SVG</title>
  <style
     id="style1132"><![CDATA[
polygon {
shape-rendering:crispEdges;
stroke-width:0.158750;
}
.s0 {
stroke:#000000;
stroke-width:0.143815;
stroke-linecap:round;
stroke-linejoin:round;
fill:none;
}
.s1 {
stroke:#000000;
stroke-width:0.143815;
stroke-linecap:round;
stroke-linejoin:round;
fill:none;
}
.s2 {
stroke:#19b219;
stroke-width:0.143815;
stroke-linecap:round;
stroke-linejoin:round;
fill:none;
}
.s3 {
stroke:#7f4c00;
stroke-width:0.143815;
stroke-linecap:round;
stroke-linejoin:round;
fill:none;
}
.s4 {
stroke:#00cc00;
stroke-width:0.143815;
stroke-linecap:round;
stroke-linejoin:round;
fill:none;
}
.s5 {
stroke:#000000;
stroke-width:0.095877;
stroke-linecap:round;
stroke-linejoin:round;
fill:none;
}
.s6 {
stroke:#ff19ff;
stroke-width:0.095877;
stroke-linecap:round;
stroke-linejoin:round;
fill:none;
}
.s7 {
stroke:#ff0000;
stroke-width:0.143815;
stroke-linecap:round;
stroke-linejoin:round;
fill:none;
}
.s8 {
stroke:#ffff00;
stroke-width:0.143815;
stroke-linecap:round;
stroke-linejoin:round;
fill:none;
}
.s9 {
stroke:#001919;
stroke-width:0.095877;
stroke-linecap:round;
stroke-linejoin:round;
fill:none;
}
.sa {
stroke:#006666;
stroke-width:0.095877;
stroke-linecap:round;
stroke-linejoin:round;
fill:none;
}
.sb {
stroke:#00ffff;
stroke-width:0.287631;
stroke-linecap:round;
stroke-linejoin:round;
fill:none;
}
.sc {
stroke:#ff0000;
stroke-width:0.767015;
stroke-linecap:round;
stroke-linejoin:round;
fill:none;
}
.sd {
stroke:#191919;
stroke-width:0.095877;
stroke-linecap:round;
stroke-linejoin:round;
fill:none;
}
.se {
stroke:#000000;
stroke-width:0.095877;
stroke-linecap:round;
stroke-linejoin:round;
stroke-dasharray:1.438,1.438;
fill:none;
}
.sf {
stroke:#000000;
stroke-width:0.287631;
stroke-linecap:round;
stroke-linejoin:round;
fill:none;
}
]]></style>
  <path
     d="M5.000 22.907 L5.000,63.407 L5.000,77.407 L5.000,82.735 A10.000,10.000 0 0,0 6.349,87.750 L18.858,109.328 A10.000,10.000 0 0,0 32.524,112.964 L42.947,106.922 A10.000,10.000 0 0,1 46.706,105.652 L79.622,101.483 A10.000,10.000 0 0,0 86.447,97.452 L91.319,90.767 A10.000,10.000 0 0,1 99.400,86.657 L150.750,86.657 A3.000,3.000 0 0,0 153.750,83.657 L153.750,22.907 A3.010,3.010 0 0,0 151.468,19.986 A298.011,298.011 0 0,0 30.250,15.214 A298.011,298.011 0 0,0 15.500,18.063 L7.314,19.986 A3.000,3.000 0 0,0 5.000,22.907 "
     class="s5"
     id="path1134"
     style="stroke:#ff0000" />
  <path
     d="M8.000 24.007 A1.100,1.100 0 0,1 6.900,22.907 A1.100,1.100 0 0,1 8.000,21.807 A1.100,1.100 0 0,1 9.100,22.907 A1.100,1.100 0 0,1 8.000,24.007 "
     class="s5"
     id="path1136"
     style="stroke:#0000ff" />
  <path
     d="M8.000 59.007 A1.100,1.100 0 0,1 6.900,57.907 A1.100,1.100 0 0,1 8.000,56.807 A1.100,1.100 0 0,1 9.100,57.907 A1.100,1.100 0 0,1 8.000,59.007 "
     class="s5"
     id="path1138"
     style="stroke:#0000ff" />
  <path
     d="M37.500 17.257 A1.100,1.100 0 0,1 36.400,16.157 A1.100,1.100 0 0,1 37.500,15.057 A1.100,1.100 0 0,1 38.600,16.157 A1.100,1.100 0 0,1 37.500,17.257 "
     class="s5"
     id="path1140"
     style="stroke:#0000ff" />
  <path
     d="M8.000 83.835 A1.100,1.100 0 0,1 6.900,82.735 A1.100,1.100 0 0,1 8.000,81.635 A1.100,1.100 0 0,1 9.100,82.735 A1.100,1.100 0 0,1 8.000,83.835 "
     class="s5"
     id="path1142"
     style="stroke:#0000ff" />
  <path
     d="M86.229 93.757 A1.100,1.100 0 0,1 85.129,92.657 A1.100,1.100 0 0,1 86.229,91.557 A1.100,1.100 0 0,1 87.329,92.657 A1.100,1.100 0 0,1 86.229,93.757 "
     class="s5"
     id="path1144"
     style="stroke:#0000ff" />
  <path
     d="M150.750 24.007 A1.100,1.100 0 0,1 149.650,22.907 A1.100,1.100 0 0,1 150.750,21.807 A1.100,1.100 0 0,1 151.850,22.907 A1.100,1.100 0 0,1 150.750,24.007 "
     class="s5"
     id="path1146"
     style="stroke:#0000ff" />
  <path
     d="M149.432 83.439 A1.100,1.100 0 0,1 148.332,82.339 A1.100,1.100 0 0,1 149.432,81.239 A1.100,1.100 0 0,1 150.532,82.339 A1.100,1.100 0 0,1 149.432,83.439 "
     class="s5"
     id="path1148"
     style="stroke:#0000ff" />
  <path
     d="M24.801 107.616 L11.000,83.810 L31.500,71.926 L31.500,19.157 L50.750,19.157 L50.750,16.657 L69.750,16.657 L69.750,14.407 L90.750,14.407 L90.750,16.657 L109.750,16.657 L109.750,21.407 L147.750,21.407 L147.750,80.657 L96.349,80.657 A10.000,10.000 0 0,0 88.267,84.767 L83.123,91.825 A10.000,10.000 0 0,1 76.298,95.856 L44.747,99.852 A10.000,10.000 0 0,0 40.989,101.122 L28.217,108.525 A2.500,2.500 0 0,1 24.801,107.616 "
     class="s5"
     id="path1150"
     style="stroke:#ff0000" />
</svg>
